<svg version="1.1" xmlns="http://www.w3.org/2000/svg" xmlns:xlink="http://www.w3.org/1999/xlink" width="108" height="254.2744" viewBox="0,0,108,254.2744"><g transform="translate(-266,-46.10417)"><g stroke-miterlimit="10"><path d="M266,300.37856v-254.27439h108v254.2744z" fill="none" stroke="none" stroke-width="0" stroke-linecap="butt"/><g><path d="M276.43743,112.2761c0,0 6.16329,-5.92187 6.29161,-6.78761c0.32403,-2.18622 -0.13142,-37.40418 32.08749,-41.26995c1.24406,-0.14927 3.06185,0.06293 3.85754,0.0338c0.772,-0.02826 3.8812,-0.34927 5.66588,-0.25627c38.46539,2.00438 32.97265,33.78344 35.88773,42.10891c2.40895,6.87999 6.55739,16.73224 6.55739,16.73224c0,0 -2.49998,-0.71767 -4.48045,-2.46605c-1.2242,-1.00773 -3.80143,-3.14585 -3.80143,-3.14585c0,0 3.09111,10.3481 1.31092,20.69498c-1.5623,9.48098 -7.29782,17.22543 -7.29782,17.22543l-1.15522,-2.34735c0,0 -1.02266,2.19794 -2.16005,3.33274c-1.1374,1.13479 -3.43873,2.91273 -3.43873,2.91273l-0.09205,-3.70421c0,0 -7.0601,11.01795 -24.35066,10.87154c-16.30625,-0.25547 -26.07151,-10.6752 -26.07151,-10.6752l-0.1162,2.65484c0,0 -3.89477,-3.29276 -6.18145,-9.70754c-2.72545,-7.64567 -3.23946,-12.24324 -3.23946,-12.24324c0,0 -2.33908,1.89916 -5.71704,2.7744c-4.23278,1.09673 -6.94665,0.34526 -6.94665,0.34526c0,0 3.60795,-2.71717 5.58396,-4.76989c1.76007,-1.8284 2.64658,-3.37722 2.64658,-3.37722c0,0 -2.10758,1.0847 -4.23277,1.61795c-2.21739,0.5564 -4.03008,0.53093 -4.03008,0.53093c0,0 4.97492,-5.03728 7.03074,-10.87429c1.94102,-5.51108 2.09972,-10.95731 2.09972,-10.95731c0,0 -1.36165,0.66163 -3.33013,0.79513c-1.24776,0.08463 -2.37785,-0.0489 -2.37785,-0.0489z" fill="#000000" stroke="none" stroke-width="1.5" stroke-linecap="butt"/><path d="M293.22331,123.59771c-0.57709,-7.29323 0.335,-17.15448 0.335,-17.15448c0,0 3.41059,-0.04124 13.91429,-3.14424c8.0696,-2.38394 20.63064,-9.48722 20.63064,-9.48722c0,0 -2.24338,3.00503 -3.49114,4.46015c-1.32651,1.54696 -3.99292,4.56297 -3.99292,4.56297c0,0 7.838,-1.66761 14.67476,-4.72931c8.56837,-3.53575 10.59252,-6.05309 12.95042,-4.5927c2.7829,1.72362 1.03006,23.1827 0.71846,28.74062c-0.42163,5.66922 -2.53327,9.49969 -3.15031,12.52053c-0.61704,3.02084 -0.4096,6.13662 -2.20622,16.0397c-1.12121,6.18021 -4.16183,8.92466 -10.01942,14.66081c-5.85759,5.73616 -9.0903,9.22856 -13.05011,9.29754c-3.95981,0.06898 -8.89913,-5.07601 -13.8989,-10.35825c-5.32393,-5.62474 -8.87489,-8.47713 -9.71551,-15.13975c-0.75707,-6.00039 -0.77653,-9.90853 -1.12266,-15.24835c-0.25298,-3.90273 -2.26119,-6.44504 -2.57636,-10.42801z" fill="#ffffff" stroke="#000000" stroke-width="2" stroke-linecap="butt"/><path d="M341.29332,108.47735c0,0 1.52429,0.31807 4.2558,1.11029c2.49492,0.72361 4.44935,1.74403 4.44935,1.74403l0.1951,1.17035c0,0 -7.24963,-3.12997 -15.1158,-2.4706c-6.2896,0.52724 -9.96319,2.8124 -9.96319,2.8124l0.04575,-4.17683c0,0 3.12748,-1.70421 7.86366,-1.85557c4.90428,-0.15672 8.09084,0.59125 8.09084,0.59125z" fill="#000000" stroke="none" stroke-width="1.5" stroke-linecap="butt"/><g stroke="none" stroke-width="0" stroke-linecap="butt"><path d="M298.20789,152.6629c0,0 3.84994,-0.53886 5.93905,-1.19195c2.80084,-0.87558 5.5699,-1.66913 5.5699,-1.66913c0,0 3.73058,0.31112 5.38746,0.55231c1.68244,0.24491 5.08623,1.17891 5.08623,1.17891c0,0 5.45743,-1.47375 8.37305,-1.00935c1.84689,0.29418 13.00516,5.94287 13.00516,5.94287c0,0 -1.54291,3.26066 -5.14269,6.66148c-3.88799,3.67309 -10.37248,6.82788 -15.90296,6.70516c-5.53669,-0.12285 -13.32809,-4.07664 -16.96637,-7.98408c-3.89902,-4.18746 -5.34884,-9.18623 -5.34884,-9.18623z" fill="#000000"/><path d="M300.10997,154.60406c0,0 7.81709,1.51558 11.47477,2.30573c3.5013,0.75637 10.2045,2.79279 10.2045,2.79279l10.06251,-2.20649l7.83077,-0.14754c0,0 -2.58635,3.18335 -5.95426,5.68462c-3.27293,2.43072 -8.17163,4.6624 -12.69831,4.6031c-13.50784,-0.17697 -20.91998,-13.03221 -20.91998,-13.03221z" fill="#ffffff"/><path d="M310.54853,151.57733c2.40557,-0.07952 10.25678,1.246 10.25678,1.246c0,0 4.86591,-1.03326 7.239,-0.47416c2.39327,0.56386 7.54722,3.36189 7.54722,3.36189c0,0 -5.19634,0.24494 -7.37388,0.42851c-2.35358,0.19841 -6.71511,0.90272 -6.71511,0.90272c0,0 -5.86251,-0.83739 -8.884,-1.46789c-3.22608,-0.6732 -10.41003,-2.12922 -10.41003,-2.12922c0,0 1.47504,-0.09421 3.06989,-0.51162c1.8653,-0.48819 3.97334,-1.31337 5.27013,-1.35623z" fill="#ffffff"/></g><path d="M320.85545,153.0248c-1.03376,0 -3.5381,-3.26042 -3.7867,-5.3637c-0.22243,-1.88186 1.31512,-3.82799 3.7867,-3.82799c2.47159,0 4.2021,0.49077 4.02999,4.18853c-0.14607,3.13818 -1.55841,5.00317 -4.02999,5.00317z" fill="#ffffff" stroke="#000000" stroke-width="1.15" stroke-linecap="butt"/><path d="M324.45757,122.9311c0,0 0.1026,3.96976 0.00576,7.12662c-0.19174,6.25113 -1.08147,27.7607 -1.08147,27.7607l-2.98167,0.00864c0,0 -0.80294,-4.17274 -1.12322,-9.49979c-0.43353,-7.21063 -0.4495,-16.29321 -0.76344,-19.63229c-0.29758,-3.16513 -0.89593,-5.71453 -0.89593,-5.71453" fill="#ffffff" stroke="#000000" stroke-width="1.3" stroke-linecap="round"/><path d="M294.92296,133.72094c0,0 -4.93211,-3.51705 -6.16417,-8.97502c-1.29636,-5.74284 -1.46118,-9.7328 0.48013,-9.99193c0.44923,-0.05997 0.75198,0.11844 1.09283,0.37409c0.36469,0.27354 0.76095,0.64758 1.04406,1.29559c0.59571,1.36353 1.05942,3.57111 1.59573,6.68601c1.0294,5.97877 1.95143,10.61127 1.95143,10.61127z" fill="#ffffff" stroke="#000000" stroke-width="1" stroke-linecap="butt"/><path d="M294.72036,129.77337c0,0 -3.56385,-2.92338 -4.31816,-8.45061c-0.42079,-3.08327 2.15675,-2.28016 2.15675,-2.28016" fill="none" stroke="#000000" stroke-width="0.25" stroke-linecap="round"/><path d="M297.73377,123.11748c0.07093,-4.89188 4.83834,-8.93609 10.21137,-8.8582c5.37302,0.0779 9.02724,4.2484 8.95632,9.14029c-0.07093,4.89188 -4.12352,8.79439 -9.49655,8.7165c-5.37302,-0.0779 -9.74207,-4.1067 -9.67114,-8.99859z" fill="#ffffff" stroke="#000000" stroke-width="1.4" stroke-linecap="butt"/><path d="M302.17141,123.23541c0.03999,-2.75843 2.30855,-4.96213 5.06696,-4.92214c2.75843,0.03999 4.96213,2.30855 4.92214,5.06696c-0.03999,2.75843 -2.30854,4.96213 -5.06696,4.92214c-2.75843,-0.03999 -4.96213,-2.30855 -4.92214,-5.06696z" fill="#000000" stroke="none" stroke-width="1.5" stroke-linecap="butt"/><path d="M324.79005,123.1182c0.20353,-4.88817 4.45264,-8.85847 9.77048,-8.85847c5.31783,0 9.27453,3.96607 9.27453,8.85847c0,4.8924 -3.88585,9.07104 -9.69964,9.14188c-5.52997,0.06739 -9.55792,-4.03692 -9.34537,-9.14188z" fill="#ffffff" stroke="#000000" stroke-width="1.4" stroke-linecap="butt"/><path d="M329.3928,123.20376c0,-2.81845 2.2848,-5.10325 5.10325,-5.10325c2.81845,0 5.10325,2.2848 5.10325,5.10325c0,2.81845 -2.28479,5.10325 -5.10325,5.10325c-2.81845,0 -5.10325,-2.2848 -5.10325,-5.10325z" fill="#000000" stroke="none" stroke-width="1.5" stroke-linecap="butt"/><path d="M297.66534,122.5853c0,0 0.06357,-9.01512 10.60111,-8.8249c9.47101,0.16586 9.55554,9.40723 9.55554,9.40723c0,0 -3.51761,8.15074 -10.54111,7.96566c-8.16221,-0.21509 -9.61554,-8.54799 -9.61554,-8.54799z" fill="#ffffff" stroke="#000000" stroke-width="1.15" stroke-linecap="butt"/><path d="M324.4124,122.7162c0,0 -0.24686,-9.4582 11.19813,-9.1032c9.71427,0.33347 9.54677,9.65229 9.54677,9.65229c0,0 -3.33506,8.14672 -11.31516,7.87421c-7.99947,-0.27317 -9.42974,-8.4233 -9.42974,-8.4233z" fill="#ffffff" stroke="#000000" stroke-width="1.15" stroke-linecap="butt"/><path d="M301.19519,112.57363c0,0 3.36963,-1.819 8.03244,-2.28178c5.16698,-0.51283 7.76823,-0.06628 7.76823,-0.06628l0.29508,4.13747c0,0 -3.83554,-0.68065 -8.01795,-0.52113c-5.59346,0.21333 -6.64488,1.43293 -10.89774,1.89119c-3.64408,0.39266 -6.73723,0.15884 -6.73723,0.15884l-0.02589,-1.23155c0,0 3.59517,0.07398 5.23371,-0.06836c1.35239,-0.11749 3.9757,-0.93808 3.9757,-0.93808z" fill="#000000" stroke="none" stroke-width="1.5" stroke-linecap="butt"/><path d="M349.15612,123.10967c0.50115,-2.91071 0.77224,-4.61249 1.31355,-5.9903c0.26497,-0.67443 0.80474,-1.1714 1.13892,-1.49697c0.38542,-0.3755 0.74657,-0.93966 1.28015,-0.86843c1.94131,0.25914 1.77649,4.24909 0.48013,9.99193c-1.23206,5.45797 -6.16417,8.97502 -6.16417,8.97502c0,0 0.92203,-4.6325 1.95143,-10.61127z" fill="#ffffff" stroke="#000000" stroke-width="1" stroke-linecap="butt"/><path d="M349.56867,119.04261c0,0 2.57754,-0.80312 2.15675,2.28016c-0.75431,5.52723 -4.31816,8.45061 -4.31816,8.45061" fill="none" stroke="#000000" stroke-width="0.25" stroke-linecap="round"/></g></g></g></svg>